<svg width="68" height="68" viewBox="0 0 68 68" fill="none" xmlns="http://www.w3.org/2000/svg">
<path fill-rule="evenodd" clip-rule="evenodd" d="M67.0738 33.6009C67.0738 52.1228 52.0588 67.1378 33.5368 67.1378C18.5202 67.1378 5.80867 57.2683 1.53517 43.662H8.65746C12.6376 53.4944 22.2772 60.4304 33.5368 60.4304C48.3544 60.4304 60.3664 48.4184 60.3664 33.6009C60.3664 18.7833 48.3544 6.77128 33.5368 6.77128C22.2772 6.77128 12.6375 13.7073 8.65745 23.5398H1.53516C5.80865 9.93347 18.5201 0.0638885 33.5368 0.0638885C52.0588 0.0638885 67.0738 15.0789 67.0738 33.6009Z" fill="#0CDC9A"/>
<path d="M0.165592 36.9545C0.0560758 35.8514 0 34.7327 0 33.6008C0 32.4689 0.0560758 31.3502 0.165592 30.2471H13.693C15.2896 20.7303 23.5664 13.4786 33.537 13.4786C40.985 13.4786 47.488 17.5252 50.9672 23.5397H42.4103C40.0455 21.4525 36.9391 20.186 33.537 20.186C26.1282 20.186 20.1222 26.192 20.1222 33.6008C20.1222 41.0096 26.1282 47.0156 33.537 47.0156C39.7877 47.0156 45.04 42.7404 46.5291 36.9545H35.7169V30.2471H53.3809C53.5639 31.3378 53.6592 32.4582 53.6592 33.6008C53.6592 44.714 44.6501 53.723 33.537 53.723C23.5664 53.723 15.2896 46.4713 13.693 36.9545H0.165592Z" fill="#0CDC9A"/>
</svg>
