<svg width="425" height="64" viewBox="0 0 425 64" fill="none" xmlns="http://www.w3.org/2000/svg">
<g clip-path="url(#clip0_1_3457)">
<path d="M63.0812 31.5407C63.0812 48.9601 48.96 63.0814 31.5405 63.0814C17.4177 63.0814 5.46291 53.7993 1.44379 41.0029H8.14213C11.8853 50.2501 20.9511 56.7732 31.5405 56.7732C45.4761 56.7732 56.7731 45.4762 56.7731 31.5407C56.7731 17.6051 45.4761 6.30814 31.5405 6.30814C20.9511 6.30814 11.8853 12.8313 8.14212 22.0785H1.44378C5.46289 9.28209 17.4177 0 31.5405 0C48.96 0 63.0812 14.1212 63.0812 31.5407ZM0.155735 34.6947C0.0527379 33.6573 0 32.6051 0 31.5406C0 30.4761 0.0527379 29.424 0.155735 28.3866H12.8779C14.3795 19.4362 22.1637 12.6162 31.5407 12.6162C38.5454 12.6162 44.6612 16.4219 47.9334 22.0784H39.8858C37.6618 20.1155 34.7403 18.9244 31.5407 18.9244C24.5729 18.9244 18.9244 24.5729 18.9244 31.5406C18.9244 38.5084 24.5729 44.1569 31.5407 44.1569C37.4194 44.1569 42.359 40.1362 43.7595 34.6947H33.5908V28.3866H50.2034C50.3755 29.4123 50.4651 30.466 50.4651 31.5406C50.4651 41.9923 41.9924 50.465 31.5407 50.465C22.1637 50.465 14.3795 43.645 12.8779 34.6947H0.155735Z" fill="#39FFC0"/>
<path d="M63.0812 31.5407C63.0812 48.9601 48.96 63.0814 31.5405 63.0814C17.4177 63.0814 5.46291 53.7993 1.44379 41.0029H8.14213C11.8853 50.2501 20.9511 56.7732 31.5405 56.7732C45.4761 56.7732 56.7731 45.4762 56.7731 31.5407C56.7731 17.6051 45.4761 6.30814 31.5405 6.30814C20.9511 6.30814 11.8853 12.8313 8.14212 22.0785H1.44378C5.46289 9.28209 17.4177 0 31.5405 0C48.96 0 63.0812 14.1212 63.0812 31.5407ZM0.155735 34.6947C0.0527379 33.6573 0 32.6051 0 31.5406C0 30.4761 0.0527379 29.424 0.155735 28.3866H12.8779C14.3795 19.4362 22.1637 12.6162 31.5407 12.6162C38.5454 12.6162 44.6612 16.4219 47.9334 22.0784H39.8858C37.6618 20.1155 34.7403 18.9244 31.5407 18.9244C24.5729 18.9244 18.9244 24.5729 18.9244 31.5406C18.9244 38.5084 24.5729 44.1569 31.5407 44.1569C37.4194 44.1569 42.359 40.1362 43.7595 34.6947H33.5908V28.3866H50.2034C50.3755 29.4123 50.4651 30.466 50.4651 31.5406C50.4651 41.9923 41.9924 50.465 31.5407 50.465C22.1637 50.465 14.3795 43.645 12.8779 34.6947H0.155735Z" stroke="#39FFC0"/>
<path d="M122.645 49.7149C120.991 51.8416 119.16 53.3382 117.151 54.2046C115.143 55.0317 113.114 55.4452 111.066 55.4452C107.837 55.4452 104.923 54.8938 102.323 53.7911C99.7633 52.649 97.5972 51.0933 95.8249 49.1241C94.0526 47.1549 92.6939 44.851 91.7487 42.2123C90.8035 39.5342 90.3309 36.6592 90.3309 33.5872C90.3309 30.4365 90.8035 27.5221 91.7487 24.844C92.6939 22.1266 94.0526 19.7635 95.8249 17.755C97.5972 15.7464 99.7633 14.171 102.323 13.0289C104.923 11.8868 107.837 11.3157 111.066 11.3157C113.233 11.3157 115.32 11.6505 117.328 12.32C119.376 12.9501 121.208 13.8953 122.822 15.1556C124.477 16.4159 125.835 17.9716 126.899 19.8226C127.962 21.6736 128.612 23.8004 128.848 26.2028H119.987C119.435 23.8397 118.372 22.0675 116.797 20.886C115.221 19.7045 113.311 19.1137 111.066 19.1137C108.979 19.1137 107.207 19.5272 105.75 20.3543C104.292 21.142 103.111 22.225 102.205 23.6034C101.299 24.9425 100.63 26.4785 100.196 28.2113C99.8027 29.9442 99.6057 31.7362 99.6057 33.5872C99.6057 35.3595 99.8027 37.0924 100.196 38.7859C100.63 40.44 101.299 41.9366 102.205 43.2756C103.111 44.6147 104.292 45.6977 105.75 46.5248C107.207 47.3125 108.979 47.7063 111.066 47.7063C114.138 47.7063 116.501 46.9383 118.155 45.4024C119.849 43.827 120.834 41.5624 121.109 38.6087H111.775V31.6968H129.498V54.5H123.59L122.645 49.7149ZM162.391 54.5H154.415V50.2466H154.238C153.175 52.0188 151.796 53.2988 150.103 54.0865C148.409 54.8741 146.677 55.268 144.904 55.268C142.659 55.268 140.808 54.9726 139.351 54.3818C137.933 53.7911 136.811 52.964 135.984 51.9007C135.157 50.7979 134.566 49.4786 134.212 47.9426C133.897 46.3673 133.739 44.6344 133.739 42.7439V23.9579H142.128V41.208C142.128 43.7285 142.522 45.619 143.309 46.8792C144.097 48.1001 145.495 48.7106 147.504 48.7106C149.788 48.7106 151.442 48.0411 152.466 46.702C153.49 45.3236 154.002 43.0787 154.002 39.9674V23.9579H162.391V54.5ZM166.04 33.3509C166.158 31.3817 166.65 29.7473 167.517 28.4476C168.383 27.148 169.486 26.1043 170.825 25.3166C172.164 24.529 173.661 23.9776 175.315 23.6625C177.008 23.3081 178.702 23.1308 180.395 23.1308C181.931 23.1308 183.487 23.249 185.062 23.4853C186.638 23.6822 188.075 24.0957 189.375 24.7259C190.675 25.356 191.738 26.2422 192.565 27.3843C193.392 28.487 193.806 29.9639 193.806 31.815V47.7063C193.806 49.0847 193.884 50.4041 194.042 51.6644C194.199 52.9246 194.475 53.8699 194.869 54.5H186.362C186.204 54.0274 186.067 53.5548 185.948 53.0822C185.87 52.5702 185.811 52.0582 185.771 51.5462C184.432 52.9246 182.857 53.8896 181.045 54.4409C179.234 54.9923 177.382 55.268 175.492 55.268C174.035 55.268 172.676 55.0908 171.416 54.7363C170.156 54.3818 169.053 53.8305 168.108 53.0822C167.162 52.3339 166.414 51.3887 165.863 50.2466C165.351 49.1044 165.095 47.7457 165.095 46.1703C165.095 44.4375 165.39 43.0196 165.981 41.9169C166.611 40.7748 167.399 39.8689 168.344 39.1994C169.329 38.5299 170.431 38.0376 171.652 37.7225C172.912 37.3681 174.173 37.0924 175.433 36.8955C176.693 36.6985 177.934 36.541 179.155 36.4229C180.376 36.3047 181.459 36.1275 182.404 35.8912C183.349 35.6549 184.097 35.3201 184.649 34.8869C185.2 34.4143 185.456 33.7448 185.417 32.8783C185.417 31.9725 185.259 31.2636 184.944 30.7516C184.668 30.2002 184.275 29.7867 183.763 29.511C183.29 29.1959 182.719 28.999 182.049 28.9202C181.419 28.8021 180.73 28.743 179.982 28.743C178.328 28.743 177.028 29.0975 176.083 29.8064C175.138 30.5153 174.586 31.6968 174.429 33.3509H166.04ZM185.417 39.5539C185.062 39.8689 184.609 40.1249 184.058 40.3218C183.546 40.4794 182.975 40.6172 182.345 40.7354C181.754 40.8535 181.124 40.952 180.454 41.0308C179.785 41.1095 179.115 41.208 178.446 41.3261C177.816 41.4443 177.186 41.6018 176.555 41.7987C175.965 41.9957 175.433 42.2713 174.96 42.6258C174.527 42.9409 174.173 43.3544 173.897 43.8664C173.621 44.3784 173.484 45.0282 173.484 45.8159C173.484 46.5642 173.621 47.1943 173.897 47.7063C174.173 48.2183 174.547 48.6318 175.019 48.9469C175.492 49.2226 176.043 49.4195 176.674 49.5376C177.304 49.6558 177.954 49.7149 178.623 49.7149C180.277 49.7149 181.557 49.4392 182.463 48.8878C183.369 48.3364 184.038 47.6866 184.472 46.9383C184.905 46.1506 185.161 45.363 185.24 44.5753C185.358 43.7876 185.417 43.1575 185.417 42.6849V39.5539ZM197.954 23.9579H205.929V29.6292H206.047C206.441 28.6839 206.973 27.8175 207.642 27.0298C208.312 26.2028 209.08 25.5136 209.946 24.9622C210.813 24.3714 211.738 23.9185 212.723 23.6034C213.707 23.2884 214.731 23.1308 215.795 23.1308C216.346 23.1308 216.956 23.2293 217.626 23.4262V31.2242C217.232 31.1454 216.759 31.0864 216.208 31.047C215.657 30.9682 215.125 30.9288 214.613 30.9288C213.077 30.9288 211.777 31.1848 210.714 31.6968C209.651 32.2088 208.784 32.9177 208.115 33.8235C207.485 34.69 207.032 35.7139 206.756 36.8955C206.48 38.077 206.342 39.3569 206.342 40.7354V54.5H197.954V23.9579ZM239.194 39.1403C239.194 37.8801 239.076 36.6788 238.84 35.5367C238.603 34.3552 238.19 33.3312 237.599 32.4648C237.048 31.559 236.319 30.8304 235.413 30.279C234.507 29.7276 233.365 29.4519 231.987 29.4519C230.608 29.4519 229.447 29.7276 228.501 30.279C227.556 30.8304 226.788 31.559 226.197 32.4648C225.646 33.3706 225.233 34.4143 224.957 35.5958C224.721 36.7379 224.602 37.9391 224.602 39.1994C224.602 40.3809 224.74 41.5624 225.016 42.7439C225.292 43.9255 225.725 44.9888 226.316 45.934C226.946 46.8399 227.714 47.5882 228.62 48.1789C229.565 48.7303 230.687 49.006 231.987 49.006C233.365 49.006 234.507 48.7303 235.413 48.1789C236.358 47.6275 237.107 46.8989 237.658 45.9931C238.209 45.0479 238.603 43.9845 238.84 42.803C239.076 41.6215 239.194 40.4006 239.194 39.1403ZM239.312 50.601H239.194C238.209 52.2551 236.91 53.4563 235.295 54.2046C233.72 54.9135 231.928 55.268 229.919 55.268C227.635 55.268 225.626 54.8348 223.893 53.9683C222.161 53.0625 220.723 51.8613 219.581 50.3647C218.478 48.8287 217.631 47.0762 217.041 45.107C216.489 43.1378 216.214 41.0898 216.214 38.9631C216.214 36.9152 216.489 34.946 217.041 33.0555C217.631 31.1257 218.478 29.4322 219.581 27.975C220.723 26.5178 222.141 25.356 223.834 24.4896C225.528 23.5838 227.497 23.1308 229.742 23.1308C231.554 23.1308 233.267 23.5247 234.882 24.3123C236.536 25.0606 237.835 26.1831 238.781 27.6797H238.899V12.32H247.287V54.5H239.312V50.601ZM251.265 23.9579H259.24V29.6292H259.358C259.752 28.6839 260.284 27.8175 260.953 27.0298C261.623 26.2028 262.391 25.5136 263.257 24.9622C264.124 24.3714 265.049 23.9185 266.034 23.6034C267.018 23.2884 268.042 23.1308 269.106 23.1308C269.657 23.1308 270.268 23.2293 270.937 23.4262V31.2242C270.543 31.1454 270.071 31.0864 269.519 31.047C268.968 30.9682 268.436 30.9288 267.924 30.9288C266.388 30.9288 265.089 31.1848 264.025 31.6968C262.962 32.2088 262.095 32.9177 261.426 33.8235C260.796 34.69 260.343 35.7139 260.067 36.8955C259.791 38.077 259.654 39.3569 259.654 40.7354V54.5H251.265V23.9579ZM271.508 33.3509C271.627 31.3817 272.119 29.7473 272.985 28.4476C273.852 27.148 274.955 26.1043 276.294 25.3166C277.633 24.529 279.129 23.9776 280.783 23.6625C282.477 23.3081 284.17 23.1308 285.864 23.1308C287.4 23.1308 288.955 23.249 290.531 23.4853C292.106 23.6822 293.544 24.0957 294.843 24.7259C296.143 25.356 297.206 26.2422 298.033 27.3843C298.86 28.487 299.274 29.9639 299.274 31.815V47.7063C299.274 49.0847 299.353 50.4041 299.51 51.6644C299.668 52.9246 299.944 53.8699 300.337 54.5H291.83C291.673 54.0274 291.535 53.5548 291.417 53.0822C291.338 52.5702 291.279 52.0582 291.24 51.5462C289.901 52.9246 288.325 53.8896 286.514 54.4409C284.702 54.9923 282.851 55.268 280.961 55.268C279.503 55.268 278.145 55.0908 276.884 54.7363C275.624 54.3818 274.521 53.8305 273.576 53.0822C272.631 52.3339 271.883 51.3887 271.331 50.2466C270.819 49.1044 270.563 47.7457 270.563 46.1703C270.563 44.4375 270.859 43.0196 271.449 41.9169C272.08 40.7748 272.867 39.8689 273.812 39.1994C274.797 38.5299 275.9 38.0376 277.121 37.7225C278.381 37.3681 279.641 37.0924 280.901 36.8955C282.162 36.6985 283.402 36.541 284.623 36.4229C285.844 36.3047 286.927 36.1275 287.872 35.8912C288.818 35.6549 289.566 35.3201 290.117 34.8869C290.669 34.4143 290.925 33.7448 290.885 32.8783C290.885 31.9725 290.728 31.2636 290.413 30.7516C290.137 30.2002 289.743 29.7867 289.231 29.511C288.759 29.1959 288.187 28.999 287.518 28.9202C286.888 28.8021 286.199 28.743 285.45 28.743C283.796 28.743 282.497 29.0975 281.551 29.8064C280.606 30.5153 280.055 31.6968 279.897 33.3509H271.508ZM290.885 39.5539C290.531 39.8689 290.078 40.1249 289.527 40.3218C289.015 40.4794 288.443 40.6172 287.813 40.7354C287.223 40.8535 286.592 40.952 285.923 41.0308C285.253 41.1095 284.584 41.208 283.914 41.3261C283.284 41.4443 282.654 41.6018 282.024 41.7987C281.433 41.9957 280.901 42.2713 280.429 42.6258C279.996 42.9409 279.641 43.3544 279.366 43.8664C279.09 44.3784 278.952 45.0282 278.952 45.8159C278.952 46.5642 279.09 47.1943 279.366 47.7063C279.641 48.2183 280.015 48.6318 280.488 48.9469C280.961 49.2226 281.512 49.4195 282.142 49.5376C282.772 49.6558 283.422 49.7149 284.092 49.7149C285.746 49.7149 287.026 49.4392 287.931 48.8878C288.837 48.3364 289.507 47.6866 289.94 46.9383C290.373 46.1506 290.629 45.363 290.708 44.5753C290.826 43.7876 290.885 43.1575 290.885 42.6849V39.5539ZM312.047 19.2318H303.659V12.32H312.047V19.2318ZM303.659 23.9579H312.047V54.5H303.659V23.9579ZM316.526 12.32H324.915V54.5H316.526V12.32ZM335.655 44.5753C335.655 45.4811 335.833 46.2688 336.187 46.9383C336.581 47.5685 337.073 48.1001 337.664 48.5334C338.255 48.9272 338.924 49.2226 339.672 49.4195C340.46 49.6164 341.268 49.7149 342.095 49.7149C342.685 49.7149 343.296 49.6558 343.926 49.5376C344.595 49.3801 345.186 49.1635 345.698 48.8878C346.25 48.5727 346.702 48.1789 347.057 47.7063C347.411 47.1943 347.589 46.5642 347.589 45.8159C347.589 44.5556 346.742 43.6104 345.048 42.9803C343.394 42.3501 341.071 41.72 338.077 41.0898C336.857 40.8141 335.655 40.4991 334.474 40.1446C333.332 39.7508 332.308 39.2585 331.402 38.6677C330.496 38.0376 329.767 37.2696 329.216 36.3638C328.665 35.4186 328.389 34.2764 328.389 32.9374C328.389 30.9682 328.763 29.3535 329.511 28.0932C330.299 26.8329 331.323 25.8483 332.583 25.1394C333.844 24.3911 335.262 23.8791 336.837 23.6034C338.412 23.2884 340.027 23.1308 341.681 23.1308C343.335 23.1308 344.93 23.2884 346.466 23.6034C348.042 23.9185 349.44 24.4502 350.661 25.1985C351.881 25.9468 352.886 26.9511 353.673 28.2113C354.5 29.4322 354.993 30.9879 355.15 32.8783H347.175C347.057 31.2636 346.447 30.1805 345.344 29.6292C344.241 29.0384 342.941 28.743 341.445 28.743C340.972 28.743 340.46 28.7824 339.909 28.8612C339.357 28.9006 338.845 29.0187 338.373 29.2156C337.94 29.4125 337.565 29.7079 337.25 30.1018C336.935 30.4562 336.778 30.9485 336.778 31.5787C336.778 32.3269 337.053 32.9374 337.605 33.41C338.156 33.8826 338.865 34.2764 339.732 34.5915C340.637 34.8672 341.661 35.1232 342.804 35.3595C343.946 35.5958 345.107 35.8518 346.289 36.1275C347.51 36.4032 348.691 36.7379 349.834 37.1318C351.015 37.5256 352.059 38.0573 352.965 38.7268C353.87 39.3569 354.599 40.1643 355.15 41.1489C355.702 42.0941 355.977 43.2756 355.977 44.6934C355.977 46.702 355.564 48.3955 354.737 49.7739C353.949 51.113 352.905 52.1961 351.606 53.0231C350.306 53.8502 348.81 54.4212 347.116 54.7363C345.462 55.0908 343.768 55.268 342.036 55.268C340.263 55.268 338.53 55.0908 336.837 54.7363C335.143 54.3818 333.627 53.7911 332.288 52.964C330.988 52.137 329.905 51.0539 329.039 49.7149C328.212 48.3364 327.759 46.6232 327.68 44.5753H335.655ZM384.123 38.1951H395.052L389.735 22.7173H389.617L384.123 38.1951ZM385.009 12.32H394.52L410.293 54.5H400.664L397.474 45.107H381.701L378.392 54.5H369.058L385.009 12.32ZM411.568 12.32H420.842V54.5H411.568V12.32Z" fill="white"/>
</g>
<defs>
<clipPath id="clip0_1_3457">
<rect width="425" height="64" fill="white"/>
</clipPath>
</defs>
</svg>
